<?xml version="1.0" encoding="UTF-8"?>
<svg version="1.1" xmlns="http://www.w3.org/2000/svg" width="500" height="500">
<path d="M0 0 C1.18585693 0.00749268 2.37171387 0.01498535 3.59350586 0.02270508 C44.92976703 0.4950441 79.13680747 4.01687177 113.625 29.4375 C114.92050781 30.38689453 114.92050781 30.38689453 116.2421875 31.35546875 C117.06976563 31.98066406 117.89734375 32.60585937 118.75 33.25 C119.68070313 33.94738281 120.61140625 34.64476562 121.5703125 35.36328125 C122.28960937 35.98589844 123.00890625 36.60851562 123.75 37.25 C123.75 37.91 123.75 38.57 123.75 39.25 C124.306875 39.45625 124.86375 39.6625 125.4375 39.875 C128.04564992 41.42579185 129.55128911 43.32961932 131.40625 45.69921875 C132.8651714 47.49703427 132.8651714 47.49703427 135.625 49.375 C144.84948324 56.89650172 148.29754478 70.30969048 151.75 81.25 C151.99024902 82.00635742 152.23049805 82.76271484 152.47802734 83.54199219 C153.18633389 85.7949537 153.87884868 88.05194305 154.5625 90.3125 C154.76955566 90.99014404 154.97661133 91.66778809 155.18994141 92.3659668 C157.95580392 101.82279327 157.91275422 111.18267369 157.91796875 120.96875 C157.92118842 122.39546745 157.92455301 123.82218458 157.92805481 125.24890137 C157.93401528 128.22762823 157.93589778 131.2063262 157.93530273 134.18505859 C157.93520101 137.98431708 157.94887809 141.78338915 157.96607494 145.58260345 C157.97723966 148.52529741 157.97922061 151.46794683 157.97869301 154.41065979 C157.97986543 155.81076197 157.98424529 157.2108656 157.99202538 158.61094666 C158.02832396 165.81407176 157.95538907 172.35795429 155.75 179.25 C155.09 179.25 154.43 179.25 153.75 179.25 C153.42902344 180.36761719 153.42902344 180.36761719 153.1015625 181.5078125 C151.38466373 184.99123139 149.33968876 185.99018085 146.125 188.125 C141.82538169 191.83370218 140.44191345 194.08801629 139.921875 199.76953125 C139.67624724 208.36101405 139.56046571 216.56230776 143.75 224.25 C144.4925 224.86875 145.235 225.4875 146 226.125 C147.75 228.25 147.75 228.25 147.640625 230.17578125 C147.44726562 231.29533203 147.44726562 231.29533203 147.25 232.4375 C146.58606999 236.32532092 146.97074776 238.35857244 148.75 241.875 C150.86484474 246.12679588 151.19617048 248.57121315 149.75 253.25 C148.62643858 255.18287003 147.40188447 257.01990473 146.1484375 258.87109375 C143.86389308 262.75737183 142.47215288 266.96477296 140.9609375 271.19921875 C139.75 274.25 139.75 274.25 138.2421875 276.75390625 C136.5494056 279.58554927 135.56952814 282.38179825 134.5 285.5 C132.14275699 291.72734347 129.33855171 296.43737889 124.75 301.25 C124.23566406 301.82492187 123.72132813 302.39984375 123.19140625 302.9921875 C116.94517672 308.79122739 107.918457 309.47623584 99.82128906 310.86450195 C99.13776367 310.99171631 98.45423828 311.11893066 97.75 311.25 C97.02651367 311.38043701 96.30302734 311.51087402 95.55761719 311.64526367 C94.96110352 311.84482666 94.36458984 312.04438965 93.75 312.25 C92.50285597 314.65952023 92.50285597 314.65952023 91.75 317.25 C91.42 317.91 91.09 318.57 90.75 319.25 C90.78702545 321.04431024 90.90196068 322.83750251 91.0625 324.625 C91.14113281 325.58148438 91.21976563 326.53796875 91.30078125 327.5234375 C91.74006774 330.18971549 92.53322058 331.87484657 93.75 334.25 C94.15945671 337.06833836 93.98281123 339.36314079 93.75 342.25 C92.76 342.91 91.77 343.57 90.75 344.25 C90.81568016 346.22040471 90.88397224 348.1908326 90.9765625 350.16015625 C90.70096916 352.70226724 89.97175501 353.58589196 88.25 355.4375 C85.39655672 358.64762369 85.6413968 359.23168158 85.75 363.25 C83.70575462 365.22610386 82.6323175 366.25 79.75 366.25 C79.09 367.9 78.43 369.55 77.75 371.25 C73.178721 370.70144652 69.07564205 369.83255197 64.75 368.25 C64.42 369.24 64.09 370.23 63.75 371.25 C60.2088979 371.33047959 57.15590348 371.22311528 53.75 370.25 C53.09 370.25 52.43 370.25 51.75 370.25 C51.5953125 371.6421875 51.5953125 371.6421875 51.4375 373.0625 C50.73538152 376.3177766 50.37225892 377.33373387 47.75 379.25 C42.41353134 381.02882289 37.79741524 380.69723163 32.75 378.25 C32.75 377.59 32.75 376.93 32.75 376.25 C32.09 375.92 31.43 375.59 30.75 375.25 C30.42 374.92 30.09 374.59 29.75 374.25 C27.8324007 374.33529199 25.9157934 374.443347 24 374.5625 C18.23897398 374.65081762 18.23897398 374.65081762 16.125 372.91796875 C15.568125 372.09232422 15.568125 372.09232422 15 371.25 C13.16511272 368.0979424 13.16511272 368.0979424 10.7890625 367.88671875 C8.77295774 367.93402807 6.76013375 368.08789244 4.75 368.25 C3.76 367.92 2.77 367.59 1.75 367.25 C1.46125 368.03375 1.1725 368.8175 0.875 369.625 C-0.25 372.25 -0.25 372.25 -2.25 374.25 C-6.62544306 374.01348956 -9.15391344 372.26008416 -12.25 369.25 C-13.0625 367 -13.0625 367 -13.25 365.25 C-15.56 365.58 -17.87 365.91 -20.25 366.25 C-20.58 364.93 -20.91 363.61 -21.25 362.25 C-22.1575 362.353125 -23.065 362.45625 -24 362.5625 C-27.25 362.25 -27.25 362.25 -29.3125 360.0625 C-29.951875 359.134375 -30.59125 358.20625 -31.25 357.25 C-32.10722656 356.52554687 -32.96445313 355.80109375 -33.84765625 355.0546875 C-36.99222567 351.38346661 -36.80227395 349.32557104 -36.625 344.5625 C-36.61082031 343.88638672 -36.59664063 343.21027344 -36.58203125 342.51367188 C-36.4360119 337.62202381 -36.4360119 337.62202381 -35.25 335.25 C-35.86875 335.435625 -36.4875 335.62125 -37.125 335.8125 C-39.25 336.25 -39.25 336.25 -41.25 335.25 C-43.43233805 329.18794986 -44.42824653 323.96508984 -41.8125 317.9375 C-41.296875 317.050625 -40.78125 316.16375 -40.25 315.25 C-39.92 314.59 -39.59 313.93 -39.25 313.25 C-40.93474722 309.88050557 -42.0691658 308.37055614 -45.25 306.25 C-49.39776273 305.96337567 -49.39776273 305.96337567 -53.25 307.25 C-55.24960012 307.289992 -57.25047242 307.29346799 -59.25 307.25 C-59.25 306.59 -59.25 305.93 -59.25 305.25 C-60.06726563 305.01925781 -60.88453125 304.78851563 -61.7265625 304.55078125 C-66.02265598 302.96475117 -69.71593499 300.79893696 -73.625 298.4375 C-74.70007813 297.79844727 -74.70007813 297.79844727 -75.796875 297.14648438 C-77.23231701 296.29014216 -78.66434226 295.42804483 -80.09277344 294.56005859 C-81.5795763 293.65714051 -83.07285874 292.76483529 -84.57128906 291.88134766 C-85.3031543 291.44226074 -86.03501953 291.00317383 -86.7890625 290.55078125 C-87.78607178 289.95970581 -87.78607178 289.95970581 -88.80322266 289.35668945 C-89.28065918 288.99148193 -89.7580957 288.62627441 -90.25 288.25 C-90.25 287.59 -90.25 286.93 -90.25 286.25 C-91.1471875 285.9096875 -91.1471875 285.9096875 -92.0625 285.5625 C-96.67354993 282.79587004 -97.82186585 277.81003844 -99.1875 272.875 C-100.67952221 267.7882988 -102.46336113 263.72852675 -105.25 259.25 C-105.25 258.59 -105.25 257.93 -105.25 257.25 C-105.91 257.25 -106.57 257.25 -107.25 257.25 C-110.92834162 253.14723435 -110.53764135 248.88057959 -110.453125 243.67578125 C-110.25 241.25 -110.25 241.25 -109.25 239.25 C-106.1875 238.625 -106.1875 238.625 -103.25 238.25 C-104.77479928 228.6711327 -109.31615178 222.42936233 -115.00292969 214.91064453 C-128.52800395 196.90015997 -129.67380001 176.72736405 -129.625 155 C-129.62478851 154.12427338 -129.62457703 153.24854675 -129.62435913 152.34628296 C-129.59032225 138.14128871 -128.50124819 124.57805279 -125.86621094 110.59375 C-125.18239857 106.88317387 -124.57433687 103.16261723 -123.9765625 99.4375 C-123.54911283 96.81212772 -123.11836148 94.18731666 -122.6875 91.5625 C-122.49003174 90.34989502 -122.29256348 89.13729004 -122.08911133 87.88793945 C-120.69583214 79.75368987 -119.15533702 72.44648429 -114.25 65.625 C-112.45320288 63.05180907 -110.97403934 60.69807867 -109.5625 57.875 C-108.34645091 55.44290183 -107.37926837 53.91638394 -105.25 52.25 C-104.59 52.25 -103.93 52.25 -103.25 52.25 C-103.0025 51.71375 -102.755 51.1775 -102.5 50.625 C-94.93080564 36.24353072 -79.27400451 27.51470922 -64.6875 21.35546875 C-60.71973587 19.55598598 -57.14173451 17.18585262 -53.5 14.8125 C-46.9121971 10.70437572 -40.10062361 8.08043489 -32.65234375 5.96875 C-30.45724912 5.31200624 -28.37397117 4.54221677 -26.25 3.6875 C-17.66835002 0.42258105 -9.1043568 -0.07773551 0 0 Z M-78.25 214.25 C-79.17413022 216.64008865 -79.44553587 217.75644787 -78.49023438 220.16772461 C-77.92272461 221.18104858 -77.92272461 221.18104858 -77.34375 222.21484375 C-74.58477391 228.00656031 -74.72739274 233.49376971 -74.75 239.8125 C-74.78155485 248.66363623 -74.45543986 255.37658199 -68.50390625 262.2734375 C-58.06935154 270.61144196 -46.02502085 269.79587779 -33.2421875 269.08203125 C-21.10639326 267.61259747 -3.3015539 261.9395491 4.75 252.25 C6.15566478 248.34113144 5.01088056 246.25365991 3.47119141 242.47998047 C2.23056679 238.64387172 2.4375 234.8088242 2.4375 230.8125 C2.21225014 223.09695145 1.4246429 217.88895332 -4.25 212.25 C-4.93707031 211.53585937 -5.62414062 210.82171875 -6.33203125 210.0859375 C-15.75858022 201.00607422 -26.82613183 197.87543469 -39.6875 198 C-40.48220703 197.99226562 -41.27691406 197.98453125 -42.09570312 197.9765625 C-56.21569248 198.02251853 -68.84446221 203.44456821 -78.25 214.25 Z M70.75 207.25 C69.78728613 208.26634465 68.82238081 209.28061728 67.85546875 210.29296875 C66.88161081 211.34002944 65.90896265 212.38821658 64.9375 213.4375 C64.43541016 213.97052734 63.93332031 214.50355469 63.41601562 215.05273438 C60.62914293 217.71351418 60.62914293 217.71351418 59.75 221.25 C59.09 221.25 58.43 221.25 57.75 221.25 C55.28420044 225.64555573 54.41794126 229.28815062 53.75 234.25 C53.09 234.91 52.43 235.57 51.75 236.25 C49.77149221 241.92519341 49.977877 248.37658574 50.75 254.25 C52.45246753 257.74543167 54.73868367 259.837821 57.75 262.25 C58.61882812 262.96027344 59.48765625 263.67054688 60.3828125 264.40234375 C72.14687593 273.46296642 84.95900289 276.20785072 99.75 275.25 C100.5440625 275.20488281 101.338125 275.15976562 102.15625 275.11328125 C108.13646123 274.3247945 111.06129703 271.50755292 114.92578125 267.02734375 C119.37902415 260.24735295 121.63126739 252.91031934 123.4375 245.0625 C123.64955078 244.14774902 123.86160156 243.23299805 124.08007812 242.29052734 C127.71507972 227.40834523 127.71507972 227.40834523 123.75 213.25 C123.234375 212.3425 122.71875 211.435 122.1875 210.5 C115.53827094 204.3622501 106.00341093 204.83213816 97.43920898 204.62792969 C93.039396 204.50061977 89.81683868 204.06694712 85.75 202.25 C83.2587873 201.82889107 83.2587873 201.82889107 80.75 201.8125 C79.925 201.77253906 79.1 201.73257813 78.25 201.69140625 C74.60606189 202.50559867 73.21298906 204.48903829 70.75 207.25 Z M31.75 258.25 C31.75 260.56 31.75 262.87 31.75 265.25 C29.44 265.58 27.13 265.91 24.75 266.25 C24.09 267.9 23.43 269.55 22.75 271.25 C21.55375 271.229375 20.3575 271.20875 19.125 271.1875 C16.34934527 271.54911699 15.09582742 271.90580384 13.09375 273.8984375 C11.47553884 276.28271671 10.09530213 278.70119786 8.75 281.25 C8.21117187 282.24644531 7.67234375 283.24289062 7.1171875 284.26953125 C2.79304847 292.57313155 -0.67095683 299.83124096 1.75 309.25 C3.65803458 312.57139353 5.00931212 313.88826871 8.4375 315.5625 C12.5951291 316.42540415 16.52186491 316.4191254 20.75 316.25 C21.61625 314.703125 21.61625 314.703125 22.5 313.125 C22.86867187 312.49207031 23.23734375 311.85914063 23.6171875 311.20703125 C24.64858059 309.42521077 25.63913941 307.61991109 26.625 305.8125 C27.32625 304.966875 28.0275 304.12125 28.75 303.25 C31.8828125 303.08984375 31.8828125 303.08984375 34.75 303.25 C34.88277344 304.10464844 35.01554687 304.95929688 35.15234375 305.83984375 C35.32894531 306.94457031 35.50554687 308.04929687 35.6875 309.1875 C35.86152344 310.28964844 36.03554688 311.39179688 36.21484375 312.52734375 C36.46845136 315.15426929 36.46845136 315.15426929 37.75 316.25 C44.98972421 317.23718375 44.98972421 317.23718375 51.62109375 314.98046875 C55.84125056 309.83363062 56.21057161 305.64066562 56.16015625 299.1875 C55.68180082 294.59528791 54.60440037 290.54593641 53.125 286.1875 C52.77199829 285.09876587 52.77199829 285.09876587 52.41186523 283.98803711 C50.60076787 279.04009827 48.58636118 276.74597728 43.75 274.25 C43.09 274.25 42.43 274.25 41.75 274.25 C41.09 271.61 40.43 268.97 39.75 266.25 C37.77 266.25 35.79 266.25 33.75 266.25 C33.255 262.29 33.255 262.29 32.75 258.25 C32.42 258.25 32.09 258.25 31.75 258.25 Z " fill="#FDFD01" transform="translate(224.25,56.75)"/>
<path d="M0 0 C0.495 0.99 0.495 0.99 1 2 C-0.29221514 4.49828261 -1.46834147 5.79010874 -4.09765625 6.828125 C-5.67175447 7.30931275 -7.25398568 7.76481949 -8.84375 8.19140625 C-11.22064981 9.08274368 -12.27371054 10.18839972 -14 12 C-14.66 12 -15.32 12 -16 12 C-17.20628008 14.33214148 -18.1654738 16.49642139 -19 19 C-19.763125 19.433125 -20.52625 19.86625 -21.3125 20.3125 C-24.61900899 22.38868006 -25.9271719 24.72359429 -28 28 C-30.125 30.375 -30.125 30.375 -32 32 C-32.66 32 -33.32 32 -34 32 C-34.33 32.99 -34.66 33.98 -35 35 C-36.66666667 36.66666667 -38.33333333 38.33333333 -40 40 C-41.29519995 42.16620544 -41.29519995 42.16620544 -42 44 C-42.66 44 -43.32 44 -44 44 C-44 44.99 -44 45.98 -44 47 C-44.66 47 -45.32 47 -46 47 C-46.12375 48.2375 -46.2475 49.475 -46.375 50.75 C-46.6106571 53.10657104 -46.86905709 54.75556465 -47.99291992 56.85351562 C-49.08891855 59.18952045 -49.34589973 60.92097266 -49.52734375 63.484375 C-49.59759766 64.33773437 -49.66785156 65.19109375 -49.74023438 66.0703125 C-49.87057986 67.84094616 -49.99823377 69.61178026 -50.12304688 71.3828125 C-50.54054401 76.39277811 -51.41266069 80.45693439 -53.33374023 85.09277344 C-54.44174506 88.26453366 -54.45701814 91.41541224 -54.5625 94.75 C-54.79130656 101.60032979 -54.79130656 101.60032979 -55.99935913 103.91387939 C-57.17061683 106.35569933 -57.27530968 108.06919998 -57.31884766 110.76855469 C-57.33871735 111.70922791 -57.35858704 112.64990112 -57.37905884 113.61907959 C-57.39061005 114.62650208 -57.40216125 115.63392456 -57.4140625 116.671875 C-57.43342865 117.70942932 -57.4527948 118.74698364 -57.4727478 119.815979 C-57.53248842 123.12723592 -57.5789073 126.43852771 -57.625 129.75 C-57.66318482 131.99610884 -57.70223685 134.24220312 -57.7421875 136.48828125 C-57.83818542 141.99205815 -57.92324916 147.49592288 -58 153 C-57.67 153 -57.34 153 -57 153 C-57 157.62 -57 162.24 -57 167 C-56.01 167.33 -55.02 167.66 -54 168 C-53.93941406 168.74765625 -53.87882812 169.4953125 -53.81640625 170.265625 C-53.73261719 171.25046875 -53.64882812 172.2353125 -53.5625 173.25 C-53.48128906 174.22453125 -53.40007812 175.1990625 -53.31640625 176.203125 C-53.04925416 178.56461753 -52.64628032 180.71901065 -52 183 C-51.34 183 -50.68 183 -50 183 C-49.67 184.98 -49.34 186.96 -49 189 C-47.68 189 -46.36 189 -45 189 C-44.67 190.65 -44.34 192.3 -44 194 C-43.34 194 -42.68 194 -42 194 C-41.67 195.65 -41.34 197.3 -41 199 C-40.01 199 -39.02 199 -38 199 C-38 200.65 -38 202.3 -38 204 C-38.66 204 -39.32 204 -40 204 C-41.19140625 202.48828125 -41.19140625 202.48828125 -42.5625 200.3125 C-44.75361723 196.88315928 -47.03687331 193.56310907 -49.43505859 190.27514648 C-67.15439721 165.70292456 -64.85687954 126.49316629 -60.3125 97.8125 C-59.77661095 94.64992413 -59.21017081 91.49593114 -58.61621094 88.34375 C-57.93239857 84.63317387 -57.32433687 80.91261723 -56.7265625 77.1875 C-56.29911283 74.56212772 -55.86836148 71.93731666 -55.4375 69.3125 C-55.24003174 68.09989502 -55.04256348 66.88729004 -54.83911133 65.63793945 C-53.44583214 57.50368987 -51.90533702 50.19648429 -47 43.375 C-45.20320288 40.80180907 -43.72403934 38.44807867 -42.3125 35.625 C-41.09645091 33.19290183 -40.12926837 31.66638394 -38 30 C-37.34 30 -36.68 30 -36 30 C-35.7525 29.46375 -35.505 28.9275 -35.25 28.375 C-28.05255088 14.69984668 -13.53710278 6.59655532 0 0 Z " fill="#F6F425" transform="translate(157,79)"/>
<path d="M0 0 C1.11375 0.0928125 1.11375 0.0928125 2.25 0.1875 C-2.60748196 5.58470218 -7.85202846 6.54419879 -14.8125 7.75 C-17.46007521 8.22062641 -20.10527085 8.70082534 -22.75 9.1875 C-23.94882812 9.4040625 -23.94882812 9.4040625 -25.171875 9.625 C-27.05337084 10.08819775 -27.05337084 10.08819775 -27.9375 12.625 C-28.205625 13.470625 -28.47375 14.31625 -28.75 15.1875 C-29.08 15.8475 -29.41 16.5075 -29.75 17.1875 C-29.71297455 18.98181024 -29.59803932 20.77500251 -29.4375 22.5625 C-29.35886719 23.51898438 -29.28023438 24.47546875 -29.19921875 25.4609375 C-28.75993226 28.12721549 -27.96677942 29.81234657 -26.75 32.1875 C-26.34054329 35.00583836 -26.51718877 37.30064079 -26.75 40.1875 C-27.74 40.8475 -28.73 41.5075 -29.75 42.1875 C-29.68431984 44.15790471 -29.61602776 46.1283326 -29.5234375 48.09765625 C-29.79903084 50.63976724 -30.52824499 51.52339196 -32.25 53.375 C-35.10344328 56.58512369 -34.8586032 57.16918158 -34.75 61.1875 C-36.5625 63.0625 -36.5625 63.0625 -38.75 64.1875 C-39.74 63.8575 -40.73 63.5275 -41.75 63.1875 C-39.77 62.6925 -39.77 62.6925 -37.75 62.1875 C-37.770625 61.094375 -37.79125 60.00125 -37.8125 58.875 C-37.75 55.1875 -37.75 55.1875 -36.75 52.1875 C-35.76 52.1875 -34.77 52.1875 -33.75 52.1875 C-33.75 50.5375 -33.75 48.8875 -33.75 47.1875 C-33.09 47.1875 -32.43 47.1875 -31.75 47.1875 C-31.770625 46.218125 -31.79125 45.24875 -31.8125 44.25 C-31.75 41.1875 -31.75 41.1875 -30.75 40.1875 C-30.51636119 38.33858054 -30.33696365 36.48261969 -30.1875 34.625 C-30.10371094 33.61308594 -30.01992188 32.60117187 -29.93359375 31.55859375 C-29.87300781 30.77613281 -29.81242187 29.99367188 -29.75 29.1875 C-30.41 29.1875 -31.07 29.1875 -31.75 29.1875 C-31.75 23.9075 -31.75 18.6275 -31.75 13.1875 C-31.09 13.1875 -30.43 13.1875 -29.75 13.1875 C-29.75 11.8675 -29.75 10.5475 -29.75 9.1875 C-27.77 8.8575 -25.79 8.5275 -23.75 8.1875 C-23.75 7.5275 -23.75 6.8675 -23.75 6.1875 C-22.76 6.1875 -21.77 6.1875 -20.75 6.1875 C-20.42 5.1975 -20.09 4.2075 -19.75 3.1875 C-18.85796875 3.22230469 -17.9659375 3.25710938 -17.046875 3.29296875 C-15.87640625 3.32003906 -14.7059375 3.34710938 -13.5 3.375 C-12.33984375 3.40980469 -11.1796875 3.44460938 -9.984375 3.48046875 C-5.74435905 3.09640933 -4.05108402 0.27621027 0 0 Z " fill="#BFB614" transform="translate(344.75,358.8125)"/>
<path d="M0 0 C3.55112219 3.12560646 5.47433491 6.46348152 7.3125 10.75 C7.60592285 11.42740234 7.8993457 12.10480469 8.20166016 12.80273438 C10.87222357 19.23024017 12.91548678 25.82631775 14.875 32.5 C15.3222644 34.02125488 15.3222644 34.02125488 15.77856445 35.57324219 C18.61163464 45.56610344 19.13951341 54.65650654 19.0625 65 C19.05798828 66.15628906 19.05347656 67.31257813 19.04882812 68.50390625 C19.03712529 71.33599225 19.02072996 74.16796811 19 77 C18.505 76.01 18.505 76.01 18 75 C17.34 75 16.68 75 16 75 C16.02320313 73.71609375 16.04640625 72.4321875 16.0703125 71.109375 C16.22280759 58.59882073 15.49396586 46.41859124 14 34 C13.34 34 12.68 34 12 34 C12 32.02 12 30.04 12 28 C11.34 28 10.68 28 10 28 C10 26.35 10 24.7 10 23 C9.01 23 8.02 23 7 23 C6.67 20.36 6.34 17.72 6 15 C5.01 15 4.02 15 3 15 C1.08373163 10.01770224 0.4452885 5.27315333 0 0 Z " fill="#BFC132" transform="translate(363,111)"/>
<path d="M0 0 C2.875 0.3125 2.875 0.3125 6 1 C8.10827055 4.16240582 8.33817465 5.50657469 8.625 9.1875 C8.69976562 10.08855469 8.77453125 10.98960937 8.8515625 11.91796875 C8.90054687 12.60503906 8.94953125 13.29210937 9 14 C8.01 14.495 8.01 14.495 7 15 C7 14.34 7 13.68 7 13 C6.34 13 5.68 13 5 13 C3.23537317 9.91190305 3 8.76687864 3 5 C2.34 5 1.68 5 1 5 C1 5.66 1 6.32 1 7 C0.34 7 -0.32 7 -1 7 C-1.0825 7.7425 -1.165 8.485 -1.25 9.25 C-2.18197162 12.66722927 -3.21964574 13.82167286 -6 16 C-9.12890625 16.4609375 -9.12890625 16.4609375 -12.5625 16.375 C-13.69816406 16.36210937 -14.83382812 16.34921875 -16.00390625 16.3359375 C-19 16 -19 16 -22 14 C-21.67 13.34 -21.34 12.68 -21 12 C-20.38511719 12.0721875 -19.77023438 12.144375 -19.13671875 12.21875 C-18.32847656 12.3115625 -17.52023438 12.404375 -16.6875 12.5 C-15.88699219 12.5928125 -15.08648437 12.685625 -14.26171875 12.78125 C-11.88103445 13.04813463 -11.88103445 13.04813463 -9 13 C-7.29939257 10.86175784 -5.79794342 8.77910139 -4.3125 6.5 C-3.68891602 5.56994141 -3.68891602 5.56994141 -3.05273438 4.62109375 C-2.02596494 3.08684057 -1.01177775 1.54418071 0 0 Z " fill="#F5F341" transform="translate(253,359)"/>
<path d="M0 0 C0.33 0 0.66 0 1 0 C1 4.62 1 9.24 1 14 C1.99 14.33 2.98 14.66 4 15 C4.06058594 15.74765625 4.12117188 16.4953125 4.18359375 17.265625 C4.26738281 18.25046875 4.35117188 19.2353125 4.4375 20.25 C4.51871094 21.22453125 4.59992188 22.1990625 4.68359375 23.203125 C4.95074584 25.56461753 5.35371968 27.71901065 6 30 C6.66 30 7.32 30 8 30 C8.33 31.98 8.66 33.96 9 36 C10.32 36 11.64 36 13 36 C13.33 37.65 13.66 39.3 14 41 C14.66 41 15.32 41 16 41 C16.33 42.65 16.66 44.3 17 46 C17.99 46 18.98 46 20 46 C20 47.65 20 49.3 20 51 C19.34 51 18.68 51 18 51 C16.80859375 49.48828125 16.80859375 49.48828125 15.4375 47.3125 C13.24638277 43.88315928 10.96312669 40.56310907 8.56494141 37.27514648 C4.16923249 31.17941473 1.01335004 25.27903475 -1 18 C-1.23460938 17.17242187 -1.46921875 16.34484375 -1.7109375 15.4921875 C-3.23414315 9.49827436 -3.05268744 5.49483739 0 0 Z " fill="#F6F514" transform="translate(99,232)"/>
<path d="M0 0 C0.33 0 0.66 0 1 0 C2.13606798 5.43268494 2.12824385 10.69066603 2.09765625 16.2109375 C2.0962413 17.17907379 2.09482635 18.14721008 2.09336853 19.14468384 C2.08779365 22.22148799 2.07524577 25.29821803 2.0625 28.375 C2.05748175 30.46744686 2.05291941 32.55989487 2.04882812 34.65234375 C2.03783245 39.7682575 2.02058515 44.88411621 2 50 C1.01 50.495 1.01 50.495 0 51 C-1.03315657 45.89936656 -1.14546539 41.01729978 -1.1328125 35.83984375 C-1.13376923 34.97235001 -1.13472595 34.10485626 -1.13571167 33.21107483 C-1.1363896 31.38477506 -1.13456243 29.55847282 -1.13037109 27.73217773 C-1.12501084 24.94314146 -1.13033259 22.15426573 -1.13671875 19.36523438 C-1.13605803 17.58593715 -1.13477699 15.80664002 -1.1328125 14.02734375 C-1.13483673 13.19702133 -1.13686096 12.36669891 -1.13894653 11.51121521 C-1.12292328 7.54075063 -0.98450575 3.87594145 0 0 Z " fill="#DBDA3F" transform="translate(96,186)"/>
<path d="M0 0 C4.224084 6.336126 3.25791531 15.10857424 3.34179688 22.52929688 C3.58650114 29.98993164 5.9117662 34.8676493 10 41 C8.02 40.67 6.04 40.34 4 40 C4 38.68 4 37.36 4 36 C3.34 36 2.68 36 2 36 C-0.00961161 28.07256931 -0.24309594 20.52361952 -0.125 12.375 C-0.11597656 11.18003906 -0.10695312 9.98507812 -0.09765625 8.75390625 C-0.07431077 5.83572166 -0.04156656 2.91797224 0 0 Z " fill="#E1D91A" transform="translate(147,279)"/>
<path d="M0 0 C0.33 0 0.66 0 1 0 C1.02684679 2.64590014 1.04676357 5.29153096 1.0625 7.9375 C1.07087891 8.69224609 1.07925781 9.44699219 1.08789062 10.22460938 C1.09652441 12.14994313 1.05224333 14.07535581 1 16 C0.67 16.33 0.34 16.66 0 17 C-0.2967999 18.4851174 -0.53802776 19.98144895 -0.75390625 21.48046875 C-0.88603516 22.39763672 -1.01816406 23.31480469 -1.15429688 24.25976562 C-1.28900391 25.22591797 -1.42371094 26.19207031 -1.5625 27.1875 C-1.70107422 28.13431641 -1.83964844 29.08113281 -1.98242188 30.05664062 C-2.64598596 34.74081472 -3.18342005 39.25500302 -3 44 C-3.66 44 -4.32 44 -5 44 C-5.33 44.66 -5.66 45.32 -6 46 C-7.33275285 40.53764484 -6.58200103 36.07951252 -5.56640625 30.6640625 C-5.33122536 29.34503433 -5.33122536 29.34503433 -5.09129333 27.99935913 C-4.59105212 25.20612443 -4.07699578 22.41564053 -3.5625 19.625 C-3.21978659 17.72542555 -2.87797969 15.82568731 -2.53710938 13.92578125 C-1.70189217 9.28189183 -0.85428051 4.64041877 0 0 Z " fill="#AAA530" transform="translate(104,135)"/>
<path d="M0 0 C3 1 3 1 4.3125 2.4375 C6.65733012 4.608639 8.92791449 5.23197862 12 6 C12.99 5.67 13.98 5.34 15 5 C15 4.34 15 3.68 15 3 C21.93 3.495 21.93 3.495 29 4 C28.67 4.66 28.34 5.32 28 6 C26.741875 6.020625 25.48375 6.04125 24.1875 6.0625 C23.47980469 6.07410156 22.77210938 6.08570313 22.04296875 6.09765625 C20 6 20 6 17 5 C16.71125 5.78375 16.4225 6.5675 16.125 7.375 C15 10 15 10 13 12 C8.62455694 11.76348956 6.09608656 10.01008416 3 7 C2.1875 4.75 2.1875 4.75 2 3 C0.68 2.67 -0.64 2.34 -2 2 C-1.34 1.34 -0.68 0.68 0 0 Z " fill="#F4F447" transform="translate(209,419)"/>
<path d="M0 0 C0.66 0.99 1.32 1.98 2 3 C0.84759018 6.12796951 -0.51158646 9.02317291 -2 12 C-2.66 12 -3.32 12 -4 12 C-4 12.99 -4 13.98 -4 15 C-4.66 15 -5.32 15 -6 15 C-6.1546875 16.8253125 -6.1546875 16.8253125 -6.3125 18.6875 C-6.77427318 22.40147573 -7.65333113 24.99626385 -10 28 C-10.66 28 -11.32 28 -12 28 C-13.16971582 20.54306165 -10.03435569 16.15369363 -6.04296875 10.1484375 C-4.11593408 7.17866706 -2.55125448 4.17704371 -1 1 C-0.67 0.67 -0.34 0.34 0 0 Z " fill="#EAE928" transform="translate(117,111)"/>
<path d="M0 0 C0.61875 0.474375 1.2375 0.94875 1.875 1.4375 C6.16105676 3.58052838 10.26600709 3.73342564 15 4 C15.33 2.68 15.66 1.36 16 0 C16.99 0.33 17.98 0.66 19 1 C19.061875 1.78375 19.12375 2.5675 19.1875 3.375 C19.72083083 6.13651284 19.72083083 6.13651284 22 7.1875 C25.97301615 8.26352521 29.96797105 9.17426858 34 10 C30.28424249 12.47717167 28.40013262 12.30345742 24 12 C21.0625 11 21.0625 11 19 10 C19 9.34 19 8.68 19 8 C18.34 7.67 17.68 7.34 17 7 C16.67 6.67 16.34 6.34 16 6 C12.98848636 6.05011596 9.98818945 6.19793892 6.98046875 6.35546875 C4 6 4 6 1.61328125 4.11328125 C0 2 0 2 0 0 Z " fill="#BFC123" transform="translate(238,425)"/>
<path d="M0 0 C0.66 0.33 1.32 0.66 2 1 C0.42910419 4.14179162 -2.182038 4.27466085 -5.4375 5.375 C-10.65682455 7.15787488 -15.76392009 9.08539304 -20.81640625 11.30078125 C-23.309218 12.09901614 -25.398319 12.12345411 -28 12 C-28 12.66 -28 13.32 -28 14 C-28.99 14 -29.98 14 -31 14 C-31.66 15.32 -32.32 16.64 -33 18 C-33.66 18 -34.32 18 -35 18 C-34.70288086 16.12719727 -34.70288086 16.12719727 -34 14 C-31.51954014 12.44486211 -29.19504013 11.17402307 -26.5625 9.9375 C-25.83546875 9.58534424 -25.1084375 9.23318848 -24.359375 8.87036133 C-19.73349412 6.67810051 -15.15310735 4.87318484 -10.1875 3.58984375 C-7.87593148 2.96654581 -5.72035676 2.14210763 -3.5 1.25 C-1.7675 0.63125 -1.7675 0.63125 0 0 Z " fill="#CDCD19" transform="translate(202,59)"/>
<path d="M0 0 C0.90588867 0.0815332 1.81177734 0.16306641 2.74511719 0.24707031 C3.75106934 0.33351807 4.75702148 0.41996582 5.79345703 0.5090332 C6.86547363 0.6133667 7.93749023 0.7177002 9.04199219 0.82519531 C10.66741943 0.97299438 10.66741943 0.97299438 12.32568359 1.1237793 C33.94599405 3.15219624 33.94599405 3.15219624 37.79199219 5.07519531 C37.79199219 5.73519531 37.79199219 6.39519531 37.79199219 7.07519531 C36.67179687 6.91921875 35.55160156 6.76324219 34.39746094 6.60253906 C28.81316631 5.90281133 23.21597109 5.73697207 17.59472656 5.55761719 C13.18250939 5.3703894 9.86751324 4.89361356 5.79199219 3.07519531 C3.13037349 2.62970174 3.13037349 2.62970174 0.47949219 2.45019531 C-0.40351563 2.37542969 -1.28652344 2.30066406 -2.19628906 2.22363281 C-3.19208984 2.15015625 -3.19208984 2.15015625 -4.20800781 2.07519531 C-2.20800781 0.07519531 -2.20800781 0.07519531 0 0 Z " fill="#E2E017" transform="translate(304.2080078125,256.9248046875)"/>
<path d="M0 0 C5.53846154 -0.36923077 5.53846154 -0.36923077 7.875 1.5 C8.24625 1.995 8.6175 2.49 9 3 C6.03 2.505 6.03 2.505 3 2 C2.67 2.99 2.34 3.98 2 5 C-1.5411021 5.08047959 -4.59409652 4.97311528 -8 4 C-8.66 4 -9.32 4 -10 4 C-10.144375 4.94875 -10.28875 5.8975 -10.4375 6.875 C-11 10 -11 10 -12 12 C-12.66 11.67 -13.32 11.34 -14 11 C-14 10.34 -14 9.68 -14 9 C-14.99 8.67 -15.98 8.34 -17 8 C-16.34 8 -15.68 8 -15 8 C-14.34 5.69 -13.68 3.38 -13 1 C-11.58376784 0.94552953 -10.16691809 0.90699492 -8.75 0.875 C-7.96109375 0.85179687 -7.1721875 0.82859375 -6.359375 0.8046875 C-3.79268059 1.0171622 -2.2083933 1.71345895 0 3 C0 2.01 0 1.02 0 0 Z " fill="#C7C81C" transform="translate(286,423)"/>
<path d="M0 0 C1.09346224 2.7336556 1.0881669 3.7828973 -0.0390625 6.55859375 C-0.56242187 7.50863281 -1.08578125 8.45867187 -1.625 9.4375 C-4.52776439 14.91975107 -6.76233219 20.43960157 -8.82421875 26.28515625 C-9.93891694 28.85896104 -10.87071597 30.22661935 -13 32 C-13 30.68 -13 29.36 -13 28 C-12.34 28 -11.68 28 -11 28 C-11.061875 26.96875 -11.12375 25.9375 -11.1875 24.875 C-10.98601846 20.71104813 -9.99744833 18.59540699 -8 15 C-7.31363375 12.76474965 -7.31363375 12.76474965 -7 11 C-6.34 11 -5.68 11 -5 11 C-5 9.35 -5 7.7 -5 6 C-4.34 6 -3.68 6 -3 6 C-2.690625 5.38125 -2.38125 4.7625 -2.0625 4.125 C-1.375 2.75 -0.6875 1.375 0 0 Z " fill="#BAB815" transform="translate(366,320)"/>
<path d="M0 0 C0.33 0 0.66 0 1 0 C1.19601608 1.74906659 1.38147403 3.49931846 1.5625 5.25 C1.66691406 6.22453125 1.77132813 7.1990625 1.87890625 8.203125 C1.99093874 10.79071423 1.77144778 12.55708204 1 15 C0.814375 15.7425 0.62875 16.485 0.4375 17.25 C0.293125 17.8275 0.14875 18.405 0 19 C-0.66 19 -1.32 19 -2 19 C-1.96519531 19.61746094 -1.93039062 20.23492187 -1.89453125 20.87109375 C-1.69270274 27.18544297 -2.62790596 32.15448255 -5 38 C-5.66 38 -6.32 38 -7 38 C-6.09023646 31.96345136 -5.06746463 26.02885155 -3.5 20.125 C-1.76717346 13.49276034 -0.85424235 6.7937392 0 0 Z " fill="#CFD41B" transform="translate(351,277)"/>
<path d="M0 0 C1.19923631 1.79885447 2.35982835 3.62578844 3.4375 5.5 C4.81671077 7.98421856 4.81671077 7.98421856 6.6328125 9.3984375 C8 11 8 11 7.93359375 12.9453125 C7.76988281 13.66460937 7.60617187 14.38390625 7.4375 15.125 C6.67554447 19.96381039 7.95480449 22.58830054 10.140625 26.84765625 C11.48916037 30.22512439 10.88444968 32.53590543 10 36 C9.67 36 9.34 36 9 36 C8.87882812 35.36191406 8.75765625 34.72382813 8.6328125 34.06640625 C8.38144531 32.82697266 8.38144531 32.82697266 8.125 31.5625 C7.96257812 30.73878906 7.80015625 29.91507812 7.6328125 29.06640625 C7.42398437 28.38449219 7.21515625 27.70257813 7 27 C6.34 26.67 5.68 26.34 5 26 C5 20.72 5 15.44 5 10 C3.68 10 2.36 10 1 10 C0.63720544 8.71073008 0.28503302 7.41846728 -0.0625 6.125 C-0.35833984 5.04605469 -0.35833984 5.04605469 -0.66015625 3.9453125 C-1 2 -1 2 0 0 Z " fill="#9D9922" transform="translate(364,274)"/>
<path d="M0 0 C0.66 0.33 1.32 0.66 2 1 C0.6875 3.9375 0.6875 3.9375 -1 7 C-1.99 7.33 -2.98 7.66 -4 8 C-4.33 8.99 -4.66 9.98 -5 11 C-6.31200404 12.35432675 -7.64631404 13.68733482 -9 15 C-9.99 16.485 -9.99 16.485 -11 18 C-11.66 18 -12.32 18 -13 18 C-13.33 18.99 -13.66 19.98 -14 21 C-14.33 20.34 -14.66 19.68 -15 19 C-15.66 18.67 -16.32 18.34 -17 18 C-16.01 17.67 -15.02 17.34 -14 17 C-12.99083967 15.23408113 -12.99083967 15.23408113 -12 13 C-8.85370878 7.55449597 -4.80140189 3.93901417 0 0 Z " fill="#C4C442" transform="translate(135,92)"/>
<path d="M0 0 C4.42436025 0.51446049 7.26511061 1.61382067 11 4 C11.66 4 12.32 4 13 4 C13 4.99 13 5.98 13 7 C14.299375 6.855625 15.59875 6.71125 16.9375 6.5625 C17.66839844 6.48128906 18.39929688 6.40007812 19.15234375 6.31640625 C21.01140229 6.18113386 21.01140229 6.18113386 22 5 C24.33297433 4.95907063 26.66705225 4.95758277 29 5 C29.33 6.32 29.66 7.64 30 9 C27.98177083 8.96744792 25.96354167 8.93489583 23.9453125 8.90234375 C21.91814596 8.87350758 21.91814596 8.87350758 20 10 C18.00039988 10.039992 15.99952758 10.04346799 14 10 C14 9.34 14 8.68 14 8 C13.175 7.773125 12.35 7.54625 11.5 7.3125 C7.30128952 5.73798357 3.62460158 3.64025547 0 1 C0 0.67 0 0.34 0 0 Z " fill="#BDBF18" transform="translate(151,354)"/>
<path d="M0 0 C0.33 0.66 0.66 1.32 1 2 C1.99 2.33 2.98 2.66 4 3 C4 3.99 4 4.98 4 6 C4.66 6 5.32 6 6 6 C6.33 7.98 6.66 9.96 7 12 C8.32 12 9.64 12 11 12 C11.33 13.65 11.66 15.3 12 17 C12.66 17 13.32 17 14 17 C14.33 18.65 14.66 20.3 15 22 C15.99 22 16.98 22 18 22 C18 23.65 18 25.3 18 27 C17.34 27 16.68 27 16 27 C14.80859375 25.48828125 14.80859375 25.48828125 13.4375 23.3125 C11.56511159 20.38805177 9.66552681 17.5039927 7.640625 14.68359375 C7.23529541 14.11535889 6.82996582 13.54712402 6.41235352 12.96166992 C5.23058991 11.31021593 4.04313435 9.6628396 2.85546875 8.015625 C1.11369312 5.18478125 0.36886545 3.2653663 0 0 Z " fill="#A4AA15" transform="translate(101,256)"/>
<path d="M0 0 C0.33 0.66 0.66 1.32 1 2 C1.99 2 2.98 2 4 2 C3.33333333 4.66666667 2.66666667 7.33333333 2 10 C1.34 10 0.68 10 0 10 C-2.03219488 13.40351338 -2.36891039 16.3232927 -2.625 20.25 C-2.69976562 21.32765625 -2.77453125 22.4053125 -2.8515625 23.515625 C-2.90054688 24.33546875 -2.94953125 25.1553125 -3 26 C-4.484375 24.84765625 -4.484375 24.84765625 -6 23 C-6.328125 20.37109375 -6.328125 20.37109375 -6.25 17.4375 C-6.23453125 16.46683594 -6.2190625 15.49617188 -6.203125 14.49609375 C-6 12 -6 12 -5 10 C-1.9375 9.375 -1.9375 9.375 1 9 C0.67 6.03 0.34 3.06 0 0 Z " fill="#D8DA50" transform="translate(120,286)"/>
<path d="M0 0 C0 0.66 0 1.32 0 2 C-6.97609341 7.12948045 -15.45862061 6.1863155 -23.73291016 6.18530273 C-25.75834572 6.18750909 -27.78325287 6.20576102 -29.80859375 6.22460938 C-31.08347656 6.22654297 -32.35835937 6.22847656 -33.671875 6.23046875 C-34.8381543 6.23457764 -36.00443359 6.23868652 -37.20605469 6.24291992 C-40 6 -40 6 -42 4 C-41.39639648 4.01047363 -40.79279297 4.02094727 -40.17089844 4.03173828 C-26.51219733 4.23742593 -12.9631887 0 0 0 Z " fill="#D3D624" transform="translate(208,321)"/>
<path d="M0 0 C1.06992188 0.00902344 2.13984375 0.01804688 3.2421875 0.02734375 C5.87002439 0.05080658 8.49739406 0.08363541 11.125 0.125 C11.125 0.785 11.125 1.445 11.125 2.125 C9.22427734 2.19847656 9.22427734 2.19847656 7.28515625 2.2734375 C5.58591904 2.34854191 3.88670124 2.42408632 2.1875 2.5 C0.94129883 2.54640625 0.94129883 2.54640625 -0.33007812 2.59375 C-6.0359825 2.86017355 -11.34518234 3.71006674 -16.875 5.125 C-17.61999756 5.3111084 -18.36499512 5.4972168 -19.13256836 5.68896484 C-19.7075708 5.83285645 -20.28257324 5.97674805 -20.875 6.125 C-20.545 5.465 -20.215 4.805 -19.875 4.125 C-19.215 4.125 -18.555 4.125 -17.875 4.125 C-17.875 3.465 -17.875 2.805 -17.875 2.125 C-12.00405562 -0.45496518 -6.27890015 -0.10052426 0 0 Z " fill="#EEED27" transform="translate(182.875,252.875)"/>
<path d="M0 0 C5.99595389 0.09387161 11.99151998 0.20004008 17.98706055 0.31738281 C20.02476105 0.35555836 22.06252631 0.39043077 24.1003418 0.421875 C27.03718134 0.46777432 29.97357941 0.52572716 32.91015625 0.5859375 C34.26682152 0.60326431 34.26682152 0.60326431 35.65089417 0.62094116 C40.79222588 0.73967778 45.1243368 1.34477187 50 3 C45.8204355 5.78637633 43.85331323 4.79562512 39 4 C39 3.34 39 2.68 39 2 C37.92516357 2.01047363 36.85032715 2.02094727 35.74291992 2.03173828 C31.75662565 2.06792779 27.77034592 2.09089663 23.78393555 2.10986328 C22.05832477 2.11992326 20.33273105 2.13357276 18.60717773 2.15087891 C16.1273986 2.17512754 13.64784477 2.18648301 11.16796875 2.1953125 C10.39599655 2.20563507 9.62402435 2.21595764 8.82865906 2.22659302 C5.00718524 2.22739422 3.25863893 2.17242595 0 0 Z " fill="#F5F119" transform="translate(240,59)"/>
<path d="M0 0 C0.66 0 1.32 0 2 0 C3.15570704 3.46712111 3.32835293 6.5414956 3.5625 10.1875 C3.64628906 11.45980469 3.73007813 12.73210937 3.81640625 14.04296875 C3.87699219 15.01878906 3.93757812 15.99460937 4 17 C2.35 16.67 0.7 16.34 -1 16 C-1.02685095 13.52076199 -1.04676547 11.0418116 -1.0625 8.5625 C-1.07506836 7.50192383 -1.07506836 7.50192383 -1.08789062 6.41992188 C-1.09653588 4.61306441 -1.05220011 2.80612397 -1 1 C-0.67 0.67 -0.34 0.34 0 0 Z " fill="#D5D63C" transform="translate(189,393)"/>
<path d="M0 0 C2.375 0.25 2.375 0.25 5 1 C5.2784375 1.66 5.556875 2.32 5.84375 3 C6.2253125 3.66 6.606875 4.32 7 5 C9.41679707 5.70176588 9.41679707 5.70176588 12.125 5.75 C13.03507812 5.80671875 13.94515625 5.8634375 14.8828125 5.921875 C15.58148438 5.94765625 16.28015625 5.9734375 17 6 C16.67 7.32 16.34 8.64 16 10 C10.72684667 9.5547115 5.98229776 8.91626837 1 7 C0.67 4.69 0.34 2.38 0 0 Z " fill="#F9FA1D" transform="translate(256,425)"/>
<path d="M0 0 C0.99 0.495 0.99 0.495 2 1 C4.29326832 9.235809 4.25511069 17.77278805 4.125 26.25 C4.11597656 27.38824219 4.10695313 28.52648437 4.09765625 29.69921875 C4.0744028 32.46637881 4.04172868 35.2330676 4 38 C3.67 37.34 3.34 36.68 3 36 C2.34 36 1.68 36 1 36 C1.00523682 35.4423999 1.01047363 34.8847998 1.01586914 34.31030273 C1.10910121 22.82151517 0.98506516 11.45138246 0 0 Z " fill="#E4E71F" transform="translate(378,150)"/>
<path d="M0 0 C0.33 0.66 0.66 1.32 1 2 C-0.2716586 4.45853996 -1.43219557 5.77791079 -4.02734375 6.79296875 C-5.6112045 7.26997174 -7.19722009 7.73986972 -8.78515625 8.203125 C-11.25850664 8.95815347 -11.25850664 8.95815347 -13.8125 11.25 C-14.534375 11.8275 -15.25625 12.405 -16 13 C-18.13671875 12.609375 -18.13671875 12.609375 -20 12 C-17.79411638 10.55862125 -15.58545003 9.12184635 -13.375 7.6875 C-12.75753906 7.28337891 -12.14007813 6.87925781 -11.50390625 6.46289062 C-7.77237427 4.04721466 -4.02317664 1.91255628 0 0 Z " fill="#DBE01A" transform="translate(157,79)"/>
<path d="M0 0 C0.99 0.33 1.98 0.66 3 1 C5.00600477 5.56923309 5.43723806 10.0959317 6 15 C6.33 15.99 6.66 16.98 7 18 C6.67 18.66 6.34 19.32 6 20 C5.34 20 4.68 20 4 20 C3.67 20.99 3.34 21.98 3 23 C1.60944182 20.21888363 1.97976148 17.97589586 2.0625 14.875 C2.116174 9.5016364 1.60344456 5.11097952 0 0 Z " fill="#D7D715" transform="translate(277,344)"/>
<path d="M0 0 C0.33 0 0.66 0 1 0 C1.0093457 0.56396484 1.01869141 1.12792969 1.02832031 1.70898438 C1.08257486 4.30681992 1.16610683 6.90295919 1.25 9.5 C1.26417969 10.386875 1.27835938 11.27375 1.29296875 12.1875 C1.57298266 19.80387828 3.82620936 24.73931403 8 31 C6.02 30.67 4.04 30.34 2 30 C2 28.68 2 27.36 2 26 C1.34 26 0.68 26 0 26 C0 17.42 0 8.84 0 0 Z " fill="#A79B0E" transform="translate(149,289)"/>
<path d="M0 0 C4.75 0.875 4.75 0.875 7 2 C12.90359631 10.72611863 11.37862987 21.99543372 11 32 C10.67 32 10.34 32 10 32 C9.99613281 30.09927734 9.99613281 30.09927734 9.9921875 28.16015625 C9.81294765 14.96541592 9.81294765 14.96541592 3 4 C1.98922642 2.67481528 0.98624606 1.34353879 0 0 Z " fill="#726D01" transform="translate(216,265)"/>
<path d="M0 0 C2 1 4 2 6 3 C6.23513961 6.37033434 6.37559828 8.39577669 4.5625 11.3125 C2.37724515 15.07113834 2.27043621 18.71964751 2 23 C2.66 23 3.32 23 4 23 C4 23.66 4 24.32 4 25 C3.01 25.33 2.02 25.66 1 26 C-0.59901439 21.00308002 -0.65679699 16.51348871 1.4375 11.6875 C1.953125 10.800625 2.46875 9.91375 3 9 C3.33 8.34 3.66 7.68 4 7 C2.6446674 4.46326712 2.6446674 4.46326712 1 2 C0.67 1.34 0.34 0.68 0 0 Z " fill="#ACAF18" transform="translate(181,363)"/>
<path d="M0 0 C1.11375 0.0928125 1.11375 0.0928125 2.25 0.1875 C-1.56711948 4.42874386 -4.55385123 6.06669974 -10.30078125 6.3828125 C-11.54214844 6.35960937 -12.78351563 6.33640625 -14.0625 6.3125 C-15.31675781 6.29445313 -16.57101562 6.27640625 -17.86328125 6.2578125 C-18.81589844 6.23460937 -19.76851563 6.21140625 -20.75 6.1875 C-20.42 5.1975 -20.09 4.2075 -19.75 3.1875 C-18.85796875 3.22230469 -17.9659375 3.25710938 -17.046875 3.29296875 C-15.87640625 3.32003906 -14.7059375 3.34710938 -13.5 3.375 C-12.33984375 3.40980469 -11.1796875 3.44460938 -9.984375 3.48046875 C-5.74435905 3.09640933 -4.05108402 0.27621027 0 0 Z " fill="#CECD20" transform="translate(344.75,358.8125)"/>
<path d="M0 0 C0.66 0.33 1.32 0.66 2 1 C0.625 3 0.625 3 -1 5 C-1.66 5 -2.32 5 -3 5 C-4.20622753 8.29702191 -5.03432744 11.25745578 -5.5 14.75 C-6 18 -6 18 -8 20 C-8.69748583 21.31747324 -9.36959957 22.64914193 -10 24 C-10 22.02 -10 20.04 -10 18 C-9.34 18 -8.68 18 -8 18 C-8.04125 16.7625 -8.0825 15.525 -8.125 14.25 C-8.13658291 10.98362038 -7.8568702 8.7853053 -6 6 C-5.34 6 -4.68 6 -4 6 C-4 4.68 -4 3.36 -4 2 C-2.125 0.9375 -2.125 0.9375 0 0 Z " fill="#A19F15" transform="translate(285,273)"/>
<path d="M0 0 C2.9375 0.25 2.9375 0.25 6 1 C8.10827055 4.16240582 8.33817465 5.50657469 8.625 9.1875 C8.69976562 10.08855469 8.77453125 10.98960937 8.8515625 11.91796875 C8.90054687 12.60503906 8.94953125 13.29210937 9 14 C8.01 14.495 8.01 14.495 7 15 C6.25073929 11.33694766 5.7619986 8.57644848 7 5 C2.94568308 3.84162374 0.78187881 4.16308743 -3 6 C-1.125 1.125 -1.125 1.125 0 0 Z " fill="#CBCA4B" transform="translate(253,359)"/>
<path d="M0 0 C0.66 0 1.32 0 2 0 C3.16711095 8.66996704 3.09744014 17.27369392 3 26 C2.67 26 2.34 26 2 26 C1.95101563 25.07316406 1.90203125 24.14632812 1.8515625 23.19140625 C1.77679688 21.99386719 1.70203125 20.79632813 1.625 19.5625 C1.55539062 18.36753906 1.48578125 17.17257813 1.4140625 15.94140625 C1.27742188 14.97074219 1.14078125 14.00007812 1 13 C0.34 12.67 -0.32 12.34 -1 12 C-0.67 8.04 -0.34 4.08 0 0 Z " fill="#DBDC24" transform="translate(379,202)"/>
<path d="M0 0 C0.66 0 1.32 0 2 0 C0.62627157 3.22618042 -0.82650884 4.85878537 -3.625 6.9375 C-6.57562922 9.25136986 -6.57562922 9.25136986 -7.4375 12.875 C-7.293125 13.57625 -7.14875 14.2775 -7 15 C-7.66 15 -8.32 15 -9 15 C-10.25 8.375 -10.25 8.375 -8 5 C-6.68 5 -5.36 5 -4 5 C-4.33 4.01 -4.66 3.02 -5 2 C-3.35 2 -1.7 2 0 2 C0 1.34 0 0.68 0 0 Z " fill="#CFCA10" transform="translate(372,241)"/>
<path d="M0 0 C0.66 0 1.32 0 2 0 C2.1875 2.8125 2.1875 2.8125 2 6 C1.0206121 7.02019573 0.02104551 8.02149805 -1 9 C-0.979375 9.825 -0.95875 10.65 -0.9375 11.5 C-1 14 -1 14 -2.8125 15.875 C-3.534375 16.24625 -4.25625 16.6175 -5 17 C-5.99 16.67 -6.98 16.34 -8 16 C-6.68 15.67 -5.36 15.34 -4 15 C-4.020625 13.906875 -4.04125 12.81375 -4.0625 11.6875 C-4 8 -4 8 -3 5 C-2.01 5 -1.02 5 0 5 C0 3.35 0 1.7 0 0 Z " fill="#BABA15" transform="translate(311,406)"/>
<path d="M0 0 C0.33 0 0.66 0 1 0 C1 5.28 1 10.56 1 16 C0.34 16 -0.32 16 -1 16 C-1.33 16.66 -1.66 17.32 -2 18 C-3.57966834 12.15522714 -2.43371033 6.76430112 -1 1 C-0.67 0.67 -0.34 0.34 0 0 Z " fill="#BABA37" transform="translate(100,163)"/>
<path d="M0 0 C1.859375 0.2578125 1.859375 0.2578125 4 1 C5.265625 2.7421875 5.265625 2.7421875 6.25 4.875 C6.58515625 5.57367188 6.9203125 6.27234375 7.265625 6.9921875 C8 9 8 9 8 12 C8.66 12 9.32 12 10 12 C10 14.64 10 17.28 10 20 C8.22513081 17.33769621 7.01844058 14.78547936 5.796875 11.84375 C5.0399659 10.09247013 4.17852242 8.38746993 3.3125 6.6875 C2 4 2 4 2 2 C1.34 2 0.68 2 0 2 C0 1.34 0 0.68 0 0 Z " fill="#B7BB26" transform="translate(117,312)"/>
<path d="M0 0 C0.66 0.33 1.32 0.66 2 1 C1.67 1.53625 1.34 2.0725 1 2.625 C-0.25941162 5.6161026 -0.26855835 7.77729983 0 11 C0.65129797 12.34090759 1.31513275 13.67592331 2 15 C1.67 15.99 1.34 16.98 1 18 C-0.32 17.34 -1.64 16.68 -3 16 C-3.08133791 14.08404032 -3.13934367 12.16708068 -3.1875 10.25 C-3.22230469 9.18265625 -3.25710937 8.1153125 -3.29296875 7.015625 C-2.97082786 3.69972145 -2.22851086 2.40983327 0 0 Z " fill="#FBF824" transform="translate(120,296)"/>
<path d="M0 0 C5.58467324 -0.33846504 10.34714182 0.89809455 15 4 C9.66353134 5.77882289 5.04741524 5.44723163 0 3 C0 2.01 0 1.02 0 0 Z " fill="#C4C653" transform="translate(257,432)"/>
<path d="M0 0 C3.3 0 6.6 0 10 0 C10 0.33 10 0.66 10 1 C9.39671875 1.13277344 8.7934375 1.26554687 8.171875 1.40234375 C7.37265625 1.57894531 6.5734375 1.75554687 5.75 1.9375 C4.96109375 2.11152344 4.1721875 2.28554688 3.359375 2.46484375 C2.58078125 2.64144531 1.8021875 2.81804687 1 3 C0.26394531 3.13664062 -0.47210938 3.27328125 -1.23046875 3.4140625 C-1.81441406 3.60742188 -2.39835937 3.80078125 -3 4 C-3.71727778 5.64551962 -4.38325228 7.31422289 -5 9 C-5.99 9.66 -6.98 10.32 -8 11 C-8 9.68 -8 8.36 -8 7 C-7.34 7 -6.68 7 -6 7 C-6 5.68 -6 4.36 -6 3 C-4.02 2.67 -2.04 2.34 0 2 C0 1.34 0 0.68 0 0 Z " fill="#9C9E15" transform="translate(321,365)"/>
<path d="M0 0 C4.45859862 0.13835803 8.91679786 0.28694579 13.375 0.4375 C14.64601563 0.47681641 15.91703125 0.51613281 17.2265625 0.55664062 C18.43828125 0.59853516 19.65 0.64042969 20.8984375 0.68359375 C22.01911621 0.72025146 23.13979492 0.75690918 24.29443359 0.79467773 C27 1 27 1 29 2 C29 2.66 29 3.32 29 4 C27.88367188 3.84402344 26.76734375 3.68804687 25.6171875 3.52734375 C19.94268753 2.81584298 14.25122467 2.65930907 8.5390625 2.48242188 C7.724375 2.44826172 6.9096875 2.41410156 6.0703125 2.37890625 C5.33570801 2.3538501 4.60110352 2.32879395 3.84423828 2.30297852 C2 2 2 2 0 0 Z " fill="#A7A711" transform="translate(313,260)"/>
<path d="M0 0 C0.66 0.99 1.32 1.98 2 3 C1.34 3 0.68 3 0 3 C0 5.97 0 8.94 0 12 C-3.70152678 12.92538169 -4.63458162 13.08174162 -8 12 C-7.59007812 11.46890625 -7.18015625 10.9378125 -6.7578125 10.390625 C-6.21898437 9.68421875 -5.68015625 8.9778125 -5.125 8.25 C-4.59132813 7.55390625 -4.05765625 6.8578125 -3.5078125 6.140625 C-2.10761086 4.15277397 -1.02144735 2.20156614 0 0 Z " fill="#B2B316" transform="translate(343,315)"/>
<path d="M0 0 C0.33 0 0.66 0 1 0 C1.19601608 1.74906659 1.38147403 3.49931846 1.5625 5.25 C1.66691406 6.22453125 1.77132813 7.1990625 1.87890625 8.203125 C1.99093874 10.79071423 1.77144778 12.55708204 1 15 C0.814375 15.7425 0.62875 16.485 0.4375 17.25 C0.2209375 18.11625 0.2209375 18.11625 0 19 C-0.66 19 -1.32 19 -2 19 C-2.33 19.66 -2.66 20.32 -3 21 C-2 14 -1 7 0 0 Z " fill="#A9AA13" transform="translate(351,277)"/>
<path d="M0 0 C0.66 0.33 1.32 0.66 2 1 C2.37890625 3.21484375 2.37890625 3.21484375 2.5625 5.9375 C2.76801323 9.60675121 2.76801323 9.60675121 4 13 C4.039992 14.99960012 4.04346799 17.00047242 4 19 C1.4931838 16.4931838 1.17720646 14.60836312 0.3125 11.1875 C0.04050781 10.14980469 -0.23148437 9.11210937 -0.51171875 8.04296875 C-1.00256812 4.98399548 -0.8157628 2.96193072 0 0 Z " fill="#B2AC21" transform="translate(97,236)"/>
<path d="M0 0 C0.66 0.33 1.32 0.66 2 1 C2 1.66 2 2.32 2 3 C1.01 3 0.02 3 -1 3 C-1 3.99 -1 4.98 -1 6 C-5.67201205 7.20568053 -10.21496292 7.09382426 -15 7 C-15.33 6.34 -15.66 5.68 -16 5 C-14.77023437 4.96132813 -14.77023437 4.96132813 -13.515625 4.921875 C-11.89914062 4.83679688 -11.89914062 4.83679688 -10.25 4.75 C-9.18265625 4.70359375 -8.1153125 4.6571875 -7.015625 4.609375 C-3.47594492 3.89410286 -2.26118038 2.74415095 0 0 Z " fill="#DDDC23" transform="translate(278,368)"/>
<path d="M0 0 C0.99 0 1.98 0 3 0 C3 2.97 3 5.94 3 9 C5.97 9.495 5.97 9.495 9 10 C9 11.98 9 13.96 9 16 C8.67 16 8.34 16 8 16 C8 14.35 8 12.7 8 11 C7.38125 11.185625 6.7625 11.37125 6.125 11.5625 C4 12 4 12 2 11 C1.3671875 8.49609375 1.3671875 8.49609375 0.875 5.4375 C0.70742188 4.42558594 0.53984375 3.41367187 0.3671875 2.37109375 C0.24601562 1.58863281 0.12484375 0.80617188 0 0 Z " fill="#ACAA11" transform="translate(256,312)"/>
<path d="M0 0 C0.99 0 1.98 0 3 0 C2.71382812 0.69480469 2.42765625 1.38960938 2.1328125 2.10546875 C0.94269408 5.1464265 -0.10263453 8.21132475 -1.125 11.3125 C-1.47820312 12.38113281 -1.83140625 13.44976562 -2.1953125 14.55078125 C-2.59363281 15.76314453 -2.59363281 15.76314453 -3 17 C-3.33 17 -3.66 17 -4 17 C-4.05447047 15.58376784 -4.09300508 14.16691809 -4.125 12.75 C-4.14820313 11.96109375 -4.17140625 11.1721875 -4.1953125 10.359375 C-3.9828378 7.79268059 -3.28654105 6.2083933 -2 4 C-1.34 4 -0.68 4 0 4 C0 2.68 0 1.36 0 0 Z " fill="#B8B912" transform="translate(229,340)"/>
<path d="M0 0 C4.455 0.99 4.455 0.99 9 2 C8.67 2.99 8.34 3.98 8 5 C8.66 5 9.32 5 10 5 C11.1577506 8.47325181 11.06866652 11.36067448 11 15 C9.83023312 12.66046624 8.74029126 10.36371359 7.75 7.9375 C5.64551792 4.40497651 3.75933289 3.50373316 0 2 C0 1.34 0 0.68 0 0 Z " fill="#C1C217" transform="translate(266,329)"/>
<path d="M0 0 C6.93 0.495 6.93 0.495 14 1 C13.67 1.66 13.34 2.32 13 3 C11.741875 3.020625 10.48375 3.04125 9.1875 3.0625 C8.47980469 3.07410156 7.77210938 3.08570313 7.04296875 3.09765625 C5 3 5 3 2 2 C1.34 3.32 0.68 4.64 0 6 C0 5.34 0 4.68 0 4 C-0.99 3.67 -1.98 3.34 -3 3 C-2.01 2.67 -1.02 2.34 0 2 C0 1.34 0 0.68 0 0 Z " fill="#CBC318" transform="translate(224,422)"/>
<path d="M0 0 C0.99 0.495 0.99 0.495 2 1 C2 1.66 2 2.32 2 3 C2.86625 3.37125 2.86625 3.37125 3.75 3.75 C6.32939979 5.18299988 8.06121592 6.78424676 10 9 C10 9.66 10 10.32 10 11 C9.01 11 8.02 11 7 11 C7 10.34 7 9.68 7 9 C6.34 9 5.68 9 5 9 C5 8.34 5 7.68 5 7 C4.01 7.33 3.02 7.66 2 8 C1.34 5.36 0.68 2.72 0 0 Z " fill="#B1AF17" transform="translate(346,93)"/>
<path d="M0 0 C0.33 0.66 0.66 1.32 1 2 C1.99 2.33 2.98 2.66 4 3 C3.01 5.64 2.02 8.28 1 11 C0.34 10.67 -0.32 10.34 -1 10 C-1 9.34 -1 8.68 -1 8 C-1.99 7.67 -2.98 7.34 -4 7 C-3.34 7 -2.68 7 -2 7 C-1.34 4.69 -0.68 2.38 0 0 Z " fill="#D7D529" transform="translate(273,424)"/>
<path d="M0 0 C0.66 0 1.32 0 2 0 C2.29296875 6.0546875 2.29296875 6.0546875 2 8 C1.01 8.66 0.02 9.32 -1 10 C-1.28818935 11.9138874 -1.28818935 11.9138874 -1.0625 14 C-0.91015625 16.125 -0.91015625 16.125 -1 18 C-1.66 18.66 -2.32 19.32 -3 20 C-3.05410687 18.22950311 -3.09284119 16.45853151 -3.125 14.6875 C-3.14820313 13.70136719 -3.17140625 12.71523438 -3.1953125 11.69921875 C-3 9 -3 9 -1 6 C-0.60986284 4.0103005 -0.26797351 2.00980131 0 0 Z " fill="#948E16" transform="translate(316,391)"/>
<path d="M0 0 C1.16015625 0.72316406 1.16015625 0.72316406 2.34375 1.4609375 C8.19647538 5.01023878 13.23318886 7.82882115 20 9 C20 9.33 20 9.66 20 10 C12.92445972 9.53471504 7.1430609 8.65951307 1.5625 3.9375 C0 2 0 2 0 0 Z " fill="#CDCD22" transform="translate(285,321)"/>
<path d="M0 0 C0.66 0 1.32 0 2 0 C5.05498079 5.78217394 6.64451156 9.5589964 5 16 C4.67 16 4.34 16 4 16 C3.87882812 15.36191406 3.75765625 14.72382813 3.6328125 14.06640625 C3.46523438 13.24011719 3.29765625 12.41382813 3.125 11.5625 C2.96257812 10.73878906 2.80015625 9.91507812 2.6328125 9.06640625 C2.31957031 8.04353516 2.31957031 8.04353516 2 7 C1.34 6.67 0.68 6.34 0 6 C0 4.02 0 2.04 0 0 Z " fill="#AAA919" transform="translate(369,294)"/>
<path d="M0 0 C7.57142857 4 7.57142857 4 10 8 C9.01 8.33 8.02 8.66 7 9 C4 7 4 7 3 4 C2.34 4 1.68 4 1 4 C0.67 2.68 0.34 1.36 0 0 Z " fill="#BDC31F" transform="translate(335,85)"/>
<path d="M0 0 C2.625 0.9375 2.625 0.9375 5 2 C4.67 4.64 4.34 7.28 4 10 C1.37613513 6.93882432 1 6.26826873 1 2 C0.34 2 -0.32 2 -1 2 C-1 2.66 -1 3.32 -1 4 C-1.66 4 -2.32 4 -3 4 C-2.67 3.01 -2.34 2.02 -2 1 C-1.34 0.67 -0.68 0.34 0 0 Z " fill="#FAFA32" transform="translate(255,362)"/>
<path d="M0 0 C2.97 0.495 2.97 0.495 6 1 C6 1.33 6 1.66 6 2 C5.21625 2.0825 4.4325 2.165 3.625 2.25 C2.75875 2.4975 1.8925 2.745 1 3 C0.30062468 4.31647119 -0.36729133 5.65022151 -1 7 C-4.17546695 8.42348518 -6.69978999 7.8250525 -10 7 C-10 6.67 -10 6.34 -10 6 C-7.69 6 -5.38 6 -3 6 C-3.33 5.01 -3.66 4.02 -4 3 C-3.01 2.67 -2.02 2.34 -1 2 C-0.67 1.34 -0.34 0.68 0 0 Z " fill="#B0AE17" transform="translate(248,321)"/>
<path d="M0 0 C1.58367747 0.14204741 3.16693318 0.28880153 4.75 0.4375 C5.63171875 0.51871094 6.5134375 0.59992188 7.421875 0.68359375 C9.69350452 0.96238465 11.79851823 1.38790577 14 2 C12 4 12 4 9.94140625 4.265625 C9.15636719 4.26046875 8.37132812 4.2553125 7.5625 4.25 C6.38880859 4.25773437 6.38880859 4.25773437 5.19140625 4.265625 C3 4 3 4 0 2 C0 1.34 0 0.68 0 0 Z " fill="#DEDF21" transform="translate(231,371)"/>
<path d="M0 0 C2.475 0.495 2.475 0.495 5 1 C5.33 2.32 5.66 3.64 6 5 C7.32 5 8.64 5 10 5 C10 5.66 10 6.32 10 7 C9.01 7 8.02 7 7 7 C7 7.66 7 8.32 7 9 C5.68 8.67 4.36 8.34 3 8 C3 5.69 3 3.38 3 1 C2.01 0.67 1.02 0.34 0 0 Z " fill="#F3F31B" transform="translate(262,321)"/>
<path d="M0 0 C3.3 0 6.6 0 10 0 C11.125 4.75 11.125 4.75 10 7 C8.33073546 6.02526874 6.66464358 5.04510211 5 4.0625 C4.071875 3.51722656 3.14375 2.97195313 2.1875 2.41015625 C1.465625 1.94480469 0.74375 1.47945313 0 1 C0 0.67 0 0.34 0 0 Z " fill="#CBCD1A" transform="translate(205,258)"/>
<path d="M0 0 C2.475 0.495 2.475 0.495 5 1 C5 1.66 5 2.32 5 3 C5.66 3 6.32 3 7 3 C7 5.97 7 8.94 7 12 C6.34 10.68 5.68 9.36 5 8 C4.14101571 6.57356548 3.26591706 5.15671114 2.375 3.75 C1.92898438 3.04359375 1.48296875 2.3371875 1.0234375 1.609375 C0.68570312 1.07828125 0.34796875 0.5471875 0 0 Z " fill="#A3A30F" transform="translate(344,265)"/>
<path d="M0 0 C2 1.3125 2 1.3125 4 4 C4.36089448 7.68855385 4.22933459 11.3051649 4 15 C1.0613021 11.42278921 0.81088092 9.63341748 1 5 C0.708776 3.32546201 0.38929201 1.65449105 0 0 Z " fill="#C8C91E" transform="translate(363,111)"/>
<path d="M0 0 C4.455 0.99 4.455 0.99 9 2 C9 2.66 9 3.32 9 4 C9.66 4 10.32 4 11 4 C11 4.99 11 5.98 11 7 C6.00724943 5.72278474 3.42388092 3.82669043 0 0 Z " fill="#B9BA16" transform="translate(140,347)"/>
<path d="M0 0 C0.33 0.99 0.66 1.98 1 3 C2.32 2.67 3.64 2.34 5 2 C1.67149253 5.59478807 -1.98971331 8.22364768 -6 11 C-6 10.34 -6 9.68 -6 9 C-6.66 8.67 -7.32 8.34 -8 8 C-6.68 8 -5.36 8 -4 8 C-4 7.01 -4 6.02 -4 5 C-2.68 5 -1.36 5 0 5 C0 3.35 0 1.7 0 0 Z " fill="#B1AE14" transform="translate(153,259)"/>
<path d="M0 0 C0.66 0.33 1.32 0.66 2 1 C-0.57784846 3.64752004 -2.91648098 5.94432065 -6 8 C-7.32 7.67 -8.64 7.34 -10 7 C-6.7 4.69 -3.4 2.38 0 0 Z " fill="#999D1A" transform="translate(147,84)"/>
<path d="M0 0 C0.66 0.33 1.32 0.66 2 1 C0.35 1.66 -1.3 2.32 -3 3 C-3 3.66 -3 4.32 -3 5 C-3.99 5 -4.98 5 -6 5 C-6.66 6.32 -7.32 7.64 -8 9 C-8.66 9 -9.32 9 -10 9 C-9.77734375 7.17578125 -9.77734375 7.17578125 -9 5 C-7.00390625 3.48046875 -7.00390625 3.48046875 -4.5625 2.1875 C-3.35787109 1.52814453 -3.35787109 1.52814453 -2.12890625 0.85546875 C-1.42636719 0.57316406 -0.72382813 0.29085937 0 0 Z " fill="#AAAC1B" transform="translate(177,68)"/>
<path d="M0 0 C2.64 0 5.28 0 8 0 C8.33 0.99 8.66 1.98 9 3 C10.65 3 12.3 3 14 3 C14 3.33 14 3.66 14 4 C8.96028079 4.11720277 4.77573465 3.59191155 0 2 C0 1.34 0 0.68 0 0 Z " fill="#BAAD14" transform="translate(274,424)"/>
<path d="M0 0 C0.66 0 1.32 0 2 0 C2 1.98 2 3.96 2 6 C1.34 6 0.68 6 0 6 C0 7.65 0 9.3 0 11 C-0.99 11 -1.98 11 -3 11 C-2.32829194 7.1936543 -1.27253436 3.64793184 0 0 Z " fill="#F8F610" transform="translate(311,400)"/>
<path d="M0 0 C0.33 0 0.66 0 1 0 C1.33 6.93 1.66 13.86 2 21 C1.67 20.34 1.34 19.68 1 19 C0.34 19 -0.32 19 -1 19 C-0.67 12.73 -0.34 6.46 0 0 Z " fill="#DBD42C" transform="translate(380,167)"/>
<path d="M0 0 C1.43836751 0.11458693 2.87570966 0.24209116 4.3125 0.375 C5.51326172 0.47941406 5.51326172 0.47941406 6.73828125 0.5859375 C9 1 9 1 12 3 C8.01803543 4.05404945 5.01804691 3.84098656 1 3 C0.67 2.01 0.34 1.02 0 0 Z " fill="#BDC114" transform="translate(278,60)"/>
<path d="M0 0 C0.33 0.99 0.66 1.98 1 3 C-3.00200378 4.60080151 -6.04556236 3.29279692 -10 2 C-10 1.67 -10 1.34 -10 1 C-6.7 0.67 -3.4 0.34 0 0 Z " fill="#F9F749" transform="translate(272,431)"/>
<path d="M0 0 C4.75 0.875 4.75 0.875 7 2 C7.625 4.5625 7.625 4.5625 8 7 C4.2047869 5.50902342 2.38957269 3.24299151 0 0 Z " fill="#B1AE15" transform="translate(216,265)"/>
<path d="M0 0 C2.12182819 2.58309518 3.68297532 4.61840345 4 8 C3.0625 10.25 3.0625 10.25 2 12 C2 11.01 2 10.02 2 9 C1.34 9 0.68 9 0 9 C0 6.03 0 3.06 0 0 Z " fill="#B8B633" transform="translate(367,117)"/>
<path d="M0 0 C0.98120464 3.05263664 0.98120464 4.94736336 0 8 C-0.66 8 -1.32 8 -2 8 C-2.66 9.65 -3.32 11.3 -4 13 C-4.33 13 -4.66 13 -5 13 C-5 11.35 -5 9.7 -5 8 C-4.34 8 -3.68 8 -3 8 C-3 7.01 -3 6.02 -3 5 C-2.34 5 -1.68 5 -1 5 C-0.67 3.35 -0.34 1.7 0 0 Z " fill="#B7B522" transform="translate(380,228)"/>
<path d="M0 0 C-2.83430453 3.2542015 -4.68607774 4.5206753 -9 5 C-7.35234966 0.05704899 -4.76872479 -0.25776891 0 0 Z " fill="#A9AD19" transform="translate(347,359)"/>
<path d="M0 0 C0.66 0 1.32 0 2 0 C2.33 1.65 2.66 3.3 3 5 C3.99 5 4.98 5 6 5 C6 6.65 6 8.3 6 10 C5.34 10 4.68 10 4 10 C1.6791945 6.7508723 0.56302958 3.94120709 0 0 Z " fill="#D1D41A" transform="translate(113,273)"/>
<path d="M0 0 C1.32 0 2.64 0 4 0 C4.66 2.97 5.32 5.94 6 9 C2.91910327 6.22719294 1.31224548 3.93673644 0 0 Z " fill="#B1B319" transform="translate(108,268)"/>
<path d="M0 0 C0.66 1.32 1.32 2.64 2 4 C1.01 4.33 0.02 4.66 -1 5 C-1.33 5.99 -1.66 6.98 -2 8 C-2.33 7.34 -2.66 6.68 -3 6 C-3.66 5.67 -4.32 5.34 -5 5 C-4.01 4.67 -3.02 4.34 -2 4 C-0.79117904 1.99983534 -0.79117904 1.99983534 0 0 Z " fill="#E0DE32" transform="translate(123,105)"/>
<path d="M0 0 C2.97 0.33 5.94 0.66 9 1 C8.67 1.99 8.34 2.98 8 4 C3.91927658 3.44855089 3.08669204 3.08669204 0 0 Z " fill="#C4C951" transform="translate(214,427)"/>
<path d="M0 0 C3.68802044 1.22934015 4.72356973 2.93859378 7 6 C6.34 6 5.68 6 5 6 C4.67 6.66 4.34 7.32 4 8 C3.7525 7.195625 3.505 6.39125 3.25 5.5625 C2.27761141 2.828919 2.27761141 2.828919 -0.125 2.1875 C-0.74375 2.125625 -1.3625 2.06375 -2 2 C-1.34 1.34 -0.68 0.68 0 0 Z " fill="#DBDB32" transform="translate(209,419)"/>
<path d="M0 0 C0.99 0.33 1.98 0.66 3 1 C0.525 5.455 0.525 5.455 -2 10 C-3 7 -3 7 -3 3 C-2.34 3 -1.68 3 -1 3 C-0.67 2.01 -0.34 1.02 0 0 Z " fill="#ACA111" transform="translate(370,310)"/>
<path d="M0 0 C4 6 4 6 4 10 C3.01 10 2.02 10 1 10 C0.63720544 8.71073008 0.28503302 7.41846728 -0.0625 6.125 C-0.35833984 5.04605469 -0.35833984 5.04605469 -0.66015625 3.9453125 C-1 2 -1 2 0 0 Z " fill="#A8A919" transform="translate(364,274)"/>
<path d="M0 0 C0.66 0 1.32 0 2 0 C1.67 3.3 1.34 6.6 1 10 C0.34 10 -0.32 10 -1 10 C-1.125 2.25 -1.125 2.25 0 0 Z " fill="#DDE043" transform="translate(106,129)"/>
<path d="M0 0 C1.125 3.75 1.125 3.75 0 6 C-2.31 5.67 -4.62 5.34 -7 5 C-3.25 3 -3.25 3 -1 3 C-0.67 2.01 -0.34 1.02 0 0 Z " fill="#C9CA5B" transform="translate(302,422)"/>
<path d="M0 0 C0.33 0.66 0.66 1.32 1 2 C1.99 2 2.98 2 4 2 C3 6 3 6 2 10 C0.68 9.67 -0.64 9.34 -2 9 C-1.01 9 -0.02 9 1 9 C0.67 6.03 0.34 3.06 0 0 Z " fill="#C0C01B" transform="translate(120,286)"/>
<path d="M0 0 C3.3 0 6.6 0 10 0 C6.80107719 1.5994614 4.64537424 2.42595236 1.25 3.125 C0.05117187 3.37636719 0.05117187 3.37636719 -1.171875 3.6328125 C-1.77515625 3.75398438 -2.3784375 3.87515625 -3 4 C-2.67 3.34 -2.34 2.68 -2 2 C-1.34 2 -0.68 2 0 2 C0 1.34 0 0.68 0 0 Z " fill="#DAD320" transform="translate(165,255)"/>
<path d="M0 0 C1.875 0.3125 1.875 0.3125 4 1 C6 4 6 4 6 7 C5.34 7 4.68 7 4 7 C3.34 5.35 2.68 3.7 2 2 C1.34 2 0.68 2 0 2 C0 1.34 0 0.68 0 0 Z " fill="#D9D846" transform="translate(117,312)"/>
<path d="M0 0 C0.33 0 0.66 0 1 0 C1.02698189 1.62490954 1.04638757 3.24994633 1.0625 4.875 C1.07410156 5.77992188 1.08570313 6.68484375 1.09765625 7.6171875 C1 10 1 10 0 12 C-0.66 12 -1.32 12 -2 12 C-1.34 8.04 -0.68 4.08 0 0 Z " fill="#A0A015" transform="translate(346,303)"/>
<path d="M0 0 C0.66 0.33 1.32 0.66 2 1 C1.814375 1.5775 1.62875 2.155 1.4375 2.75 C0.95976454 5.20692525 1.24270636 6.64397534 2 9 C1.01 8.67 0.02 8.34 -1 8 C-1.33 6.02 -1.66 4.04 -2 2 C-1.34 2 -0.68 2 0 2 C0 1.34 0 0.68 0 0 Z " fill="#A2A311" transform="translate(145,270)"/>
<path d="M0 0 C-1.65 1.65 -3.3 3.3 -5 5 C-5.66 3.68 -6.32 2.36 -7 1 C-4.53721199 -0.231394 -2.7204945 -0.07159196 0 0 Z " fill="#E4E412" transform="translate(294,265)"/>
<path d="M0 0 C0.66 0.99 1.32 1.98 2 3 C1.67 3.99 1.34 4.98 1 6 C-1.0625 6.6875 -1.0625 6.6875 -3 7 C-2.25 2.25 -2.25 2.25 0 0 Z " fill="#DCDE40" transform="translate(117,111)"/>
<path d="M0 0 C0.99 0.33 1.98 0.66 3 1 C2.8125 2.875 2.8125 2.875 2 5 C-0.5625 6.25 -0.5625 6.25 -3 7 C-3.33 6.34 -3.66 5.68 -4 5 C-2.68 5 -1.36 5 0 5 C0 3.35 0 1.7 0 0 Z " fill="#D0D91F" transform="translate(307,416)"/>
<path d="M0 0 C1.485 0.99 1.485 0.99 3 2 C3 3.32 3 4.64 3 6 C2.34 6 1.68 6 1 6 C0.67 6.66 0.34 7.32 0 8 C-1.125 2.25 -1.125 2.25 0 0 Z " fill="#D4D43A" transform="translate(98,173)"/>
<path d="M0 0 C2.31 0.66 4.62 1.32 7 2 C6.67 2.66 6.34 3.32 6 4 C3.03 3.505 3.03 3.505 0 3 C0 2.01 0 1.02 0 0 Z " fill="#D1D413" transform="translate(183,389)"/>
<path d="M0 0 C0.66 0 1.32 0 2 0 C2 1.65 2 3.3 2 5 C2.66 5 3.32 5 4 5 C3.67 6.32 3.34 7.64 3 9 C0.70620251 5.55930376 0 4.27709699 0 0 Z " fill="#A8A326" transform="translate(127,332)"/>
<path d="M0 0 C2.31 0.66 4.62 1.32 7 2 C7 3.98 7 5.96 7 8 C6.67 8 6.34 8 6 8 C6 6.35 6 4.7 6 3 C5.38125 3.185625 4.7625 3.37125 4.125 3.5625 C2 4 2 4 0 3 C0 2.01 0 1.02 0 0 Z " fill="#828116" transform="translate(258,320)"/>
<path d="M0 0 C0.66 0 1.32 0 2 0 C0.95125002 2.62187494 0.35068687 3.79371361 -2.125 5.25 C-2.74375 5.4975 -3.3625 5.745 -4 6 C-4.33 4.68 -4.66 3.36 -5 2 C-3.35 2 -1.7 2 0 2 C0 1.34 0 0.68 0 0 Z " fill="#BEBA1F" transform="translate(372,241)"/>
<path d="M0 0 C0.66 0.33 1.32 0.66 2 1 C1.01 2.98 0.02 4.96 -1 7 C-1.66 7 -2.32 7 -3 7 C-3.33 6.01 -3.66 5.02 -4 4 C-2.68 2.68 -1.36 1.36 0 0 Z " fill="#B0B02E" transform="translate(135,92)"/>
<path d="M0 0 C1.46067199 0.45082469 2.91848032 0.91093537 4.375 1.375 C5.18710937 1.63023438 5.99921875 1.88546875 6.8359375 2.1484375 C9 3 9 3 11 5 C7.7 4.34 4.4 3.68 1 3 C0.67 2.01 0.34 1.02 0 0 Z " fill="#A4A012" transform="translate(304,68)"/>
<path d="M0 0 C2.02054804 1.64169528 4.02043058 3.30911778 6 5 C6 5.33 6 5.66 6 6 C4.35 6 2.7 6 1 6 C0.67 4.02 0.34 2.04 0 0 Z " fill="#9A9C0F" transform="translate(276,313)"/>
<path d="M0 0 C0.33 0.66 0.66 1.32 1 2 C0.34 2 -0.32 2 -1 2 C-1 2.99 -1 3.98 -1 5 C-2.98 5.33 -4.96 5.66 -7 6 C-2.25 1.125 -2.25 1.125 0 0 Z " fill="#96930F" transform="translate(228,309)"/>
<path d="M0 0 C5.75 -0.125 5.75 -0.125 8 1 C8 1.66 8 2.32 8 3 C5.36 2.67 2.72 2.34 0 2 C0 1.34 0 0.68 0 0 Z " fill="#D1CF28" transform="translate(334,261)"/>
<path d="" fill="#000000" transform="translate(0,0)"/>
<path d="" fill="#000000" transform="translate(0,0)"/>
<path d="" fill="#000000" transform="translate(0,0)"/>
<path d="" fill="#000000" transform="translate(0,0)"/>
<path d="" fill="#000000" transform="translate(0,0)"/>
<path d="" fill="#000000" transform="translate(0,0)"/>
<path d="" fill="#000000" transform="translate(0,0)"/>
<path d="" fill="#000000" transform="translate(0,0)"/>
<path d="" fill="#000000" transform="translate(0,0)"/>
<path d="" fill="#000000" transform="translate(0,0)"/>
<path d="" fill="#000000" transform="translate(0,0)"/>
<path d="" fill="#000000" transform="translate(0,0)"/>
<path d="" fill="#000000" transform="translate(0,0)"/>
<path d="" fill="#000000" transform="translate(0,0)"/>
<path d="" fill="#000000" transform="translate(0,0)"/>
<path d="" fill="#000000" transform="translate(0,0)"/>
<path d="" fill="#000000" transform="translate(0,0)"/>
<path d="" fill="#000000" transform="translate(0,0)"/>
<path d="" fill="#000000" transform="translate(0,0)"/>
<path d="" fill="#000000" transform="translate(0,0)"/>
<path d="" fill="#000000" transform="translate(0,0)"/>
<path d="" fill="#000000" transform="translate(0,0)"/>
<path d="" fill="#000000" transform="translate(0,0)"/>
<path d="" fill="#000000" transform="translate(0,0)"/>
<path d="" fill="#000000" transform="translate(0,0)"/>
<path d="" fill="#000000" transform="translate(0,0)"/>
<path d="" fill="#000000" transform="translate(0,0)"/>
<path d="" fill="#000000" transform="translate(0,0)"/>
<path d="" fill="#000000" transform="translate(0,0)"/>
<path d="" fill="#000000" transform="translate(0,0)"/>
<path d="" fill="#000000" transform="translate(0,0)"/>
<path d="" fill="#000000" transform="translate(0,0)"/>
<path d="" fill="#000000" transform="translate(0,0)"/>
<path d="" fill="#000000" transform="translate(0,0)"/>
<path d="" fill="#000000" transform="translate(0,0)"/>
<path d="" fill="#000000" transform="translate(0,0)"/>
<path d="" fill="#000000" transform="translate(0,0)"/>
<path d="" fill="#000000" transform="translate(0,0)"/>
<path d="" fill="#000000" transform="translate(0,0)"/>
<path d="" fill="#000000" transform="translate(0,0)"/>
<path d="" fill="#000000" transform="translate(0,0)"/>
<path d="" fill="#000000" transform="translate(0,0)"/>
<path d="" fill="#000000" transform="translate(0,0)"/>
<path d="" fill="#000000" transform="translate(0,0)"/>
<path d="" fill="#000000" transform="translate(0,0)"/>
<path d="" fill="#000000" transform="translate(0,0)"/>
<path d="" fill="#000000" transform="translate(0,0)"/>
<path d="" fill="#000000" transform="translate(0,0)"/>
<path d="" fill="#000000" transform="translate(0,0)"/>
<path d="" fill="#000000" transform="translate(0,0)"/>
<path d="" fill="#000000" transform="translate(0,0)"/>
<path d="" fill="#000000" transform="translate(0,0)"/>
<path d="" fill="#000000" transform="translate(0,0)"/>
<path d="" fill="#000000" transform="translate(0,0)"/>
<path d="" fill="#000000" transform="translate(0,0)"/>
<path d="" fill="#000000" transform="translate(0,0)"/>
<path d="" fill="#000000" transform="translate(0,0)"/>
<path d="" fill="#000000" transform="translate(0,0)"/>
<path d="" fill="#000000" transform="translate(0,0)"/>
<path d="" fill="#000000" transform="translate(0,0)"/>
</svg>
